<svg width="512" height="179" viewBox="0 0 512 179" fill="none" xmlns="http://www.w3.org/2000/svg">
<path fill-rule="evenodd" clip-rule="evenodd" d="M270.7 175.8H14.8L14.7 176L14.5 176.1V176.3L14.3 176.4L14.1 176.6L14 176.7L13.8 176.8L13.7 177L13.5 177.1L13.4 177.2L13.2 177.4H13.1L12.9 177.6L12.7 177.7L12.6 177.8L12.4 177.9L12.2 178L12 178.1H11.8L11.7 178.3H11.5L11.3 178.4L11.1 178.5H10.9L10.7 178.6H10.5L10.3 178.7H10.1L9.9 178.8H9.7L9.5 178.9H8.7L8.3 179H7.1L6.9 178.9H6.5L6.3 178.8H6.1L5.9 178.7L5.7 178.6H5.5L5.4 178.5L5.2 178.4H5L4.8 178.2H4.6L4.4 178.1L4.3 178L4.1 177.9L3.9 177.8L3.7 177.6H3.6L3.4 177.4L3.2 177.3L3.1 177.2L2.9 177H2.8L2.6 176.8L2.5 176.6L2.3 176.5L2.2 176.3L2.1 176.2L1.9 176V175.9L1.7 175.7L1.6 175.6L1.4 175.4V175.2L1.2 175.1V174.9L1 174.7V174.5L0.8 174.3V174.2L0.7 174L0.6 173.8V173.6L0.5 173.4L0.4 173.2V173L0.3 172.8V172.6L0.2 172.4V172L0.1 171.8V171L0 170.8V169.6L0.1 169.4V169L0.2 168.8V168.6L0.3 168.4V168.2L0.4 168.1L0.5 167.9V167.7L0.7 167.5V167.3L0.8 167.1L0.9 166.9L1 166.8L1.1 166.6L1.2 166.4L1.3 166.2L1.4 166.1L1.5 165.9L1.7 165.7V165.6L1.9 165.4L2 165.3L2.2 165.1L2.3 165L2.5 164.8L2.6 164.7L2.8 164.6L2.9 164.4L3.1 164.3L3.2 164.2L3.4 164H3.5L3.7 163.8L3.9 163.7L4.1 163.6L4.2 163.5L4.4 163.4H4.6L4.8 163.2H5L5.1 163.1L5.3 163H5.5L5.7 162.8H6.1L6.3 162.7H6.5L6.7 162.6H7L7.2 162.5H9.6L9.8 162.6H10.2L10.5 162.3L10.7 162L11 161.6L11.3 161.2L11.5 160.8L11.8 160.5L12.1 160.1L12.4 159.7L12.6 159.4L12.9 159L13.2 158.6L13.5 158.3L13.8 157.9L14 157.5L14.3 157.2L14.6 156.8L14.9 156.4L15.2 156L15.5 155.7L15.8 155.3L16 154.9L16.3 154.6L16.6 154.2L16.9 153.8L17.2 153.5L17.5 153.1L17.8 152.7L18.1 152.4L18.4 152L18.7 151.6L19 151.3L19.3 150.9L19.9 150.2L20.2 149.8L20.5 149.4L20.8 149.1L21.1 148.7L21.4 148.3L21.7 148L22.3 147.3L22.6 146.9L23 146.5L23.3 146.2L23.6 145.8L23.9 145.4L24.2 145.1L24.5 144.7L24.8 144.4L25.5 143.6L25.8 143.3L26.1 142.9L26.7 142.2L27 141.8L27.4 141.5L27.7 141.1L28.3 140.4L28.6 140L29 139.7L30.6 137.9L30.9 137.6L31.2 137.2L32.9 135.4L33.5 134.7L33.8 134.4L34.5 133.7L34.8 133.3L35.2 133L35.5 132.6L35.8 132.3L36.2 131.9L36.5 131.6L37.1 130.9L38.5 129.5L38.8 129.2L39.1 128.9L40.5 127.5L42.1 125.8L43.5 124.5L44.1 123.8L44.5 123.5L44.8 123.2L45.1 122.8L46.5 121.5L46.8 121.2L47.1 120.9L47.5 120.5L47.8 120.2L48.1 119.9L49.1 118.9L50.5 117.7L51.8 116.4L52.8 115.4L53.1 115.2L53.4 114.9L53.8 114.5L54.1 114.2L54.4 113.9L55.1 113.3L55.4 113L56.4 112.1L57.4 111.2L58 110.6L58.7 110L59 109.7L59.3 109.5L59.6 109.2L60.3 108.6L60.6 108.3L61.2 107.7L61.5 107.4L61.9 107.1L62.2 106.9L62.5 106.6L63.1 106L63.4 105.7L63.8 105.5L64.1 105.2L64.7 104.6L65 104.4L65.3 104.1L65.6 103.8L65.9 103.6L66.2 103.3L66.5 103L66.8 102.8L67.5 102.2L67.8 102L68.1 101.7L68.4 101.4L68.7 101.2L69 100.9L69.3 100.7L69.6 100.4L69.9 100.2L70.2 99.9L70.5 99.7L70.7 99.4L71 99.2L71.3 98.9L71.6 98.7L71.9 98.4L72.2 98.2L72.5 97.9L72.8 97.7L73.1 97.4L73.4 97.2L73.6 97L73.9 96.7L74.2 96.5L74.5 96.3L74.8 96L75 95.8L75.3 95.6L75.6 95.3L75.9 95.1L76.1 94.9L76.4 94.7L76.7 94.4L77 94.2L77.2 94L77.5 93.8L77.8 93.6L78 93.3L78.3 93.1L78.6 92.9L78.8 92.7L79.1 92.5L79.3 92.3L79.6 92.1L79.9 91.9L80.1 91.7L80.4 91.5L80.6 91.3L80.9 91.1L81.1 90.9L81.4 90.7L81.6 90.5L81.9 90.3L82.1 90.1L82.4 89.9L82.6 89.7L82.8 89.5H83V89.3H83.2L83.3 89.1H83.4L83.5 88.9H83.7L83.9 88.7L84 88.6L84.1 88.5L84.2 88.4H84.4V88.2H84.6L84.7 88H84.8L84.9 87.9L85 87.8L85.2 87.7L85.4 87.5L85.6 87.4L85.7 87.3L85.8 87.2H85.9L86 87H86.1L86.3 86.9L86.5 86.7L86.7 86.5L86.9 86.4L87 86.3H87.1L86.4 85L85.8 83.7L85.1 82.5L84.5 81.2L84 79.9L83.5 78.6L83 77.3L82.5 76L82.1 74.6L81.7 73.3L81.3 71.9L81 70.5L80.7 69.2L80.4 67.8L80.2 66.4L80 65L79.8 63.6L79.7 62.2L79.6 60.8V59.4L79.5 58V55.2L79.6 53.8L79.7 52.3L79.9 50.9L80 49.5L80.3 48.2L80.5 46.8L80.8 45.4L81.1 44L81.5 42.7L81.8 41.3L82.3 40L82.7 38.6L83.2 37.3L83.7 36L84.2 34.7L84.8 33.4L85.4 32.1L86.1 30.9L86.7 29.6L87.4 28.4L88.2 27.2L88.9 26L89.7 24.8L90.5 23.7L91.4 22.6L92.2 21.5L93.2 20.4L94 19.4L95 18.3L96 17.3L97 16.3L98 15.3L99 14.3L100.1 13.4L101.1 12.5L102.3 11.7L103.4 10.8L104.6 10L105.8 9.2L106.9 8.5L108.2 7.8L109.4 7.1L110.6 6.4L111.9 5.8L113.2 5.2L114.4 4.6L115.7 4.1L117.1 3.6L118.4 3.1L119.7 2.7L121.1 2.3L122.4 1.9L123.8 1.5L125.2 1.2L126.6 1L127.9 0.7L129.3 0.5L130.7 0.3H132.1L133.5 0.1H134.9L136.4 0H139.2L140.6 0.1L142 0.2L143.4 0.3L144.8 0.5L146.2 0.7L147.6 1L148.9 1.2L150.3 1.5L151.7 1.9L153 2.3L154.4 2.7L155.7 3.1L157 3.6L158.4 4.1L159.7 4.6L160.9 5.2L162.2 5.8L163.5 6.4L164.7 7.1L166 7.8L167.2 8.5L168.3 9.3L169.5 10L170.7 10.8L171.8 11.7L172.9 12.5L174 13.5L175 14.3L176.1 15.3L177.1 16.3L178.1 17.3L179.1 18.3L180.1 19.3L181 20.3L181.9 21.5L182.8 22.5L183.6 23.7L184.4 24.8L185.2 26L186 27.2L186.7 28.4L187.4 29.6L188 30.9L188.7 32.1L189.3 33.4L189.9 34.7L190.4 36L190.9 37.3L191.4 38.6L191.9 40L192.3 41.3L192.7 42.7L193 44L193.3 45.4L193.6 46.8L193.8 48.2L194.1 49.6L194.2 50.9L194.4 52.3V53.8L194.6 55.2V60.8L194.4 62.2V63.6L194.1 65L193.9 66.4L193.7 67.8L193.4 69.2L193.1 70.5L192.8 71.9L192.4 73.3L192 74.6L191.6 76L191.1 77.3L190.7 78.6L190.1 79.9L189.6 81.2L189 82.5L188.3 83.7L187.7 85L187 86.2L186.3 87.4L185.5 88.6L184.8 89.8L184 91L183.1 92.1L182.3 93.2L181.3 94.3V94.6L181.1 94.8V95L181 95.1V95.3L180.9 95.6V95.8L180.8 96V98L180.9 98.2V98.3L181 98.4V98.6L181.1 98.7V98.8L181.2 98.9V99L181.4 99.2V99.3L181.5 99.4V99.5L181.6 99.6L181.7 99.7V99.8H181.9V100H182L182.2 100.2V100.3H182.3L182.4 100.5L182.6 100.6H182.7V100.7H182.9V100.9H183.2V101L183.5 101.1H183.6L183.8 101.3H184.3V101.4H184.7L184.9 101.5H186.5L186.6 101.4H186.8L187 101.3H187.2V101.2H187.4L187.6 101H187.8L187.9 100.8H188.1V100.7L188.4 100.5L189.4 99.2L190.4 97.9L191.4 96.6L192.4 95.2L193.3 93.9L194.1 92.5L195 91.1L195.8 89.7L196.5 88.2L197.3 86.8L197.9 85.3L198.6 83.8L199.2 82.3L199.8 80.8L200.3 79.2L200.9 77.7L201.3 76.1L201.7 74.5L202.1 73L202.5 71.4L202.8 69.8L203.1 68.2L203.3 66.6L203.5 64.9L203.7 63.3V61.7L203.9 60.1V55L203.8 53.3L203.7 51.7L203.5 50.1L203.3 48.5L203.1 46.9L202.8 45.3L202.5 43.7L202.1 42.1L201.7 40.5L201.3 38.9L200.8 37.4L200.3 35.8L199.7 34.3L199.2 32.7H199.4L199.5 32.6H199.7V32.5H200L200.4 32.3H200.5L200.6 32.2H200.8L201 32H201.2L201.5 31.9H201.6V31.8H202V31.7H202.1L202.3 31.6H202.5L202.6 31.5H202.9L203.2 31.3H203.5V31.2H203.9V31.1H204.1L204.4 31L204.6 30.9H204.9L205 30.8H205.2L205.3 30.7H205.5L205.7 30.6H205.9L206.1 30.5H206.4L206.9 30.3H207.1V30.2H207.4L207.9 30H208.1L208.4 29.9H208.6L208.9 29.8H209.1L209.4 29.7L209.9 29.5H210.2L210.7 29.3H211.2L211.5 29.2L212.1 29H212.6L212.9 28.9L213.5 28.7H214L214.3 28.6H214.6L214.9 28.5L215.2 28.4H215.5L215.8 28.3H216.1L216.4 28.2L216.7 28.1H217L217.3 28H217.6L217.9 27.9H218.2L218.5 27.8L218.9 27.7L219.5 27.6L220.1 27.5L220.8 27.4H221.1L221.7 27.2H222.1L222.7 27H223L224 26.8H224.7L225.4 26.6H225.7L226.7 26.4H227.1L227.8 26.3L228.5 26.2H228.9L229.2 26.1L229.9 26L230.6 25.9L231.3 25.8H231.7L232.4 25.7L233.1 25.6H233.5L234.2 25.5L234.9 25.4L235.7 25.3H236.4L237.2 25.1H238.3L238.6 25H239.4L239.8 24.9H240.5L240.9 24.8H241.6L242.4 24.7L243.1 24.6H244.3L244.6 24.5H245.8L246.2 24.4H247.3L247.7 24.3H249.2L249.6 24.2H251.9L252.3 24.1H255.7L256.1 24H264.8L265.2 24.1H267L267.4 24.2H268.9L269.2 24.3H270.3L270.7 24.4H271.4L271.8 24.5H272.5L272.9 24.6H273.6L273.9 24.7H274.3L274.6 24.8H275.3L275.7 24.9H276L276.4 25H276.7L277.1 25.1H277.4L277.8 25.2H278.1L278.5 25.3H278.8L279.1 25.4H279.5L279.8 25.5H280.2L280.5 25.6H280.8L282.6 26L284.4 26.4L286.2 26.9L288 27.3L289.8 27.8L291.5 28.4L293.3 29L295 29.7L296.7 30.4L298.4 31.1L300.1 31.9L301.7 32.7L303.4 33.5L305 34.5L306.6 35.4L308.2 36.4L309.7 37.4L311.2 38.4L312.7 39.4L314.2 40.6L315.6 41.7L317 42.9L318.4 44.2L319.8 45.4L321.1 46.7L322.4 48L323.6 49.4L324.8 50.8L326 52.2L327.2 53.6L328.3 55.1L329.3 56.6L330.4 58.1L331.4 59.6L332.4 61.2L333.4 62.8L334.2 64.4L335.1 66.1L335.9 67.7L336.7 69.4L337.4 71.1L338.1 72.8L338.7 74.5L339.3 76.3L339.9 78L340.4 79.8L340.9 81.6L341.3 83.4L341.7 85.2L342 87L342.3 88.8L342.6 90.6H342.8L342.9 90.4H343.1L343.3 90.2H343.5L343.6 90H343.8L344 89.8H344.1L344.3 89.6H344.5L344.6 89.4H344.8L345 89.2H345.2L345.3 89L346 88.7L346.2 88.6L346.3 88.5L346.5 88.4L346.7 88.3L346.8 88.2L347.2 88H347.4L347.5 87.8L347.9 87.7L348 87.6L348.2 87.5L348.4 87.4L348.9 87.1H349L349.2 87L349.4 86.9H349.5L349.7 86.7H349.8L350 86.6L350.2 86.5H350.3L350.5 86.3H350.7L351 86.1L351.7 85.8L352 85.6L352.6 85.3L353.3 85L353.6 84.9L353.9 84.8L354.3 84.6L354.6 84.5L354.9 84.4L355.5 84.1L355.9 84L356.2 83.8L356.8 83.6L357.1 83.5L357.4 83.4L357.8 83.2L358.4 83H358.7L359 82.8L359.3 82.7L359.6 82.6L360 82.5L360.3 82.4L360.6 82.3L360.9 82.2L361.2 82.1L362.2 81.8H362.4L363 81.6L363.3 81.5H363.6L363.9 81.3H364.2L364.5 81.2L364.8 81.1H365.2L365.7 80.9H366L366.3 80.8L366.6 80.7H366.9L367.2 80.6H367.5L367.8 80.5H368.1L368.4 80.4H368.7L369 80.3H369.3L369.9 80.1H370.7L371 80L371.6 79.9H371.9L372.7 79.8H373.6L374.1 79.7H375.2L375.8 79.6H380.1L380.9 79.7H381.2L381.7 79.8H382.5L382.7 79.9H383.2L383.5 80H384L384.7 80.2L385.2 80.3L385.7 80.4L386.5 80.5L386.7 80.6H387L387.2 80.7H387.4L387.7 80.8H387.9L388.2 80.9L388.4 81H388.6L388.9 81.1L389.3 81.3H389.6L389.8 81.4L390.3 81.6H390.5L390.7 81.7H391L391.2 81.9L391.7 82L392.3 82.3L393 82.5L393.4 82.7L394.1 83H394.3L394.5 83.2H394.8L395 83.3L395.4 83.5L395.6 83.6L395.8 83.7L396.2 83.9L396.7 84.1L397.3 84.5H397.5L397.9 84.8L398.1 84.9L398.3 85L398.5 85.1L398.7 85.2L398.9 85.4H399.1L399.3 85.6L399.5 85.7L399.7 85.8L399.9 85.9L400.1 86.1H400.3L400.5 86.3L400.9 86.6H401L401.2 86.8L401.4 86.9L401.6 87.1H401.8L402 87.3L402.4 87.6L402.5 87.7L402.7 87.8L403.1 88.1L403.3 88.2L403.5 88.4L403.8 88.6L404 88.8L404.2 88.9L404.3 89L404.7 89.3L404.9 89.5L405.2 89.7L405.4 89.9L405.6 90L405.7 90.2L405.9 90.3L406.2 90.6L406.7 91L407.2 91.5L407.4 91.6L407.6 91.8L407.7 91.9L407.9 92.1L408 92.2L408.2 92.4L408.4 92.5L408.7 92.8L408.8 93L409 93.1L409.2 93.3L409.6 93.7L409.8 93.9L409.9 94.1L410.2 94.4L410.4 94.5L410.5 94.7L410.7 94.8L410.8 95L411 95.2L411.1 95.3L411.3 95.5L411.4 95.6L411.6 95.8L411.7 96L412 96.3L412.1 96.4L412.3 96.6L413 97.4L413.3 97.8L413.4 97.9L413.5 98.1L413.7 98.3L413.8 98.4L414.5 99.2L414.6 99.4L414.8 99.6L414.9 99.8L415 99.9L415.2 100.1V100.3L415.4 100.4L415.6 100.6V100.8L415.9 101.1L416.5 101.8L417 102.5L417.2 102.8L417.5 103.2L417.7 103.5L417.9 103.8L418.2 104.2L418.7 104.9L418.9 105.2L419.1 105.6L419.4 105.9L419.6 106.3L420.3 107.3L420.5 107.7L420.7 108L421 108.4L421.2 108.7L421.4 109.1L421.6 109.4L421.8 109.8L422.1 110.1L422.3 110.5L422.5 110.8L422.7 111.2L422.9 111.5L423.3 112.2L423.5 112.6L424 113.3L424.2 113.6L424.4 114L424.5 114.2V114.3L424.8 114.7L425.2 115.3L425.4 115.7L425.6 116L425.8 116.4L426 116.7L426.2 117.1L426.4 117.4L426.6 117.7L426.8 118.1L427 118.4L427.2 118.8L427.3 119.1L427.5 119.4L427.7 119.8L427.9 120.1L428.1 120.5L428.5 121.1L428.9 121.8L429.1 122.1L429.4 122.8L429.6 123.1L429.7 123.2L430 123.8L430.2 124.1L430.4 124.4L430.6 124.7L430.9 125.4L431.1 125.7L431.5 126.3L431.9 127L432.2 127.6L432.4 127.9L432.6 128.2L433.2 129.2L433.4 129.4L433.5 129.7L433.9 130.3L434.5 131.3L434.6 131.5L434.8 131.8L435 132.1L435.2 132.4L435.4 132.7L435.6 132.9L435.8 133.2L436 133.5L436.1 133.8L436.3 134.1L436.7 134.6L436.9 134.9L437.1 135.1L437.3 135.4L437.6 135.9L437.8 136.2L438 136.5L438.2 136.7L438.4 137L438.8 137.5L439.4 138.2L439.6 138.5L439.9 139L440.1 139.2L440.5 139.7L440.7 139.9L440.9 140.1L441.1 140.4L441.3 140.6L441.5 140.8L441.7 141L441.9 141.3L442.1 141.5L442.3 141.7L442.8 142.2L443.1 142.5L443.2 142.7H443.3L443.7 143.2L444.1 143.6H444.2L444.3 143.8L444.5 144H444.7V144.1L445.2 144.5V144.6L445.4 144.7L445.6 144.9H445.7L445.8 145.1H445.9L446 145.3H446.1L446.4 145.6H446.5L446.7 145.8L447.2 146.2H447.3L447.4 146.4H447.5L447.6 146.5L447.7 146.6H447.8L447.9 146.8H448.1L448.4 147.1H448.5L448.6 147.2L448.9 147.5H449.1V147.6H449.3V147.8L449.7 148H449.8L449.9 148.1L450.1 148.2L450.3 148.3L450.4 148.4H450.5L450.6 148.5L450.7 148.6H450.9V148.7L451.2 148.9H451.3L451.4 149L451.7 149.1L452 149.3H452.1L452.3 149.4V149.5H452.5L452.6 149.6L452.9 149.7L453.5 150L453.7 150.1L453.9 150.2H454.1L454.3 150.4L454.6 150.5L454.8 150.6H454.9L455 150.7H455.2V150.8H455.4L455.8 151H456L456.2 151.1H456.3L456.4 151.2H456.6V151.3H456.8L457.3 151.5H457.5L457.7 151.6H457.8L458 151.7H458.2L458.4 151.8H458.6L459 152H459.4L459.6 152.1H459.8L460 152.2H460.4L460.5 152.3H460.9L461.5 152.5H462L462.2 152.6H462.5L463 152.7H463.6L463.7 152.8H464.6L464.8 152.9H466.5L467.3 153H470.6L470.8 152.9H471.9L472 152.8H472.8L473 152.7H473.6L473.7 152.6H474.2L474.5 152.5H474.8L475 152.4H475.5L475.6 152.3H476L476.1 152.2H476.4L476.6 152.1H476.9L477.1 152H477.4L477.6 151.9H477.7L478 151.8H478.2L478.4 151.7H478.7L478.8 151.6L479.2 151.5H479.5L479.8 151.3H480.1L480.3 151.2H480.4L480.6 151.1H480.7L480.9 151H481.1L481.2 150.9H481.4L481.5 150.8H481.7L481.9 150.7H482L482.2 150.6L482.5 150.5H482.7L483 150.3H483.1L483.3 150.2L483.6 150.1L484.1 149.9H484.2L484.4 149.8H484.5L484.7 149.7L484.8 149.6H485L485.2 149.5H485.3L486.1 149.1L486.4 148.9H486.5L486.7 148.8H486.8L487 148.7L487.2 148.6L487.6 148.4L487.8 148.3H487.9L488.1 148.1H488.2L488.4 148H488.5L488.7 147.8H488.8L489.1 147.6H489.2L489.4 147.4H489.5L489.8 147.2H490L490.3 147L490.4 146.9L490.6 146.8L490.8 146.6H491L491.1 146.5L491.3 146.4L491.4 146.3L491.5 146.2L491.7 146.1L492 145.9H492.1L492.2 145.7H492.4L492.5 145.6L492.8 145.4L493.1 145.2V145.1H493.3L493.5 144.9L493.7 144.7H493.8L494 144.5L494.4 144.2L494.6 144H494.7L495 143.7H495.1L495.2 143.5H495.4V143.3H495.6L495.7 143.1H495.9V142.9H496.1L496.3 142.6L496.6 142.4V142.3L496.8 142.2L496.9 142.1L497 142L497.1 141.8H497.2L497.4 141.6L497.9 141.1L498 141L498.1 140.9L498.4 140.5L498.5 140.4L498.6 140.3L498.7 140.2L498.8 140.1L498.9 139.9L499.2 139.6L499.3 139.5L499.4 139.4V139.2H499.6V139.1L499.8 138.9V138.8L500 138.5H500.1L500.2 138.3V138.2L500.4 138L500.5 137.8L500.6 137.7L500.7 137.6L500.9 137.3V137.2L501 137.1V136.9H501.2L501.4 136.4L501.5 136.2V136.1L501.7 136L501.8 135.7H501.9V135.5L502.2 135.3L502.3 135.1H502.4L502.5 134.9H502.6L502.7 134.7H502.9V134.6L503.1 134.5V134.4H503.3L503.4 134.2H503.5L503.8 134H504L504.3 133.8L504.7 133.7H504.9L505.2 133.5H507.6L507.8 133.6H508L508.1 133.7L508.4 133.8H508.5L508.7 133.9L508.9 134.1H509.1L509.3 134.3L509.5 134.4L509.7 134.6H509.8L509.9 134.7L510 134.8L510.1 134.9L510.2 135L510.4 135.2L510.5 135.3V135.4L510.8 135.6V135.7L510.9 135.9H511L511.1 136.2L511.3 136.4L511.4 136.7L511.5 136.9L511.6 137.2V137.3L511.7 137.6V137.9L511.8 138.1V138.7L511.9 138.8V139.9L511.8 140V140.4L511.7 140.6L511.6 140.8V140.9L511.5 141.1V141.2L511.4 141.3L511.3 141.6L511.1 141.9L510.9 142.3L510.8 142.5L510.6 142.7V142.9L510.4 143.1L510.3 143.3L510 143.6V143.8L509.8 144L509.5 144.4L509.3 144.8L509 145.1L508.7 145.5V145.7L508.5 145.8L508.3 146L508.2 146.2L508.1 146.4L507.9 146.5L507.8 146.7L507.6 146.9L507.5 147.1L507.2 147.4L507.1 147.6L506.9 147.7L506.8 147.9L506.6 148.1L506.5 148.2L506.3 148.4L506 148.7L505.7 149L505.6 149.2L505.4 149.3L505.2 149.5L504.8 150L504.6 150.1L504.5 150.3L504.3 150.4L504.1 150.6L504 150.7L503.6 151L503.3 151.3L503.2 151.4L503 151.6L502.7 151.9L502.5 152L502.3 152.1L502 152.4L501.6 152.7L501.5 152.8L501.3 153L501 153.2L500.8 153.4H500.6L500.4 153.6L500.3 153.8L499.7 154.1L499.5 154.3H499.4L499 154.6L498.8 154.7L498.7 154.9H498.5L498.3 155.1L498.1 155.2L497.4 155.7L497.2 155.8L497 155.9L496.8 156L496.6 156.1L496.1 156.5L495.7 156.7H495.5L495.3 156.9L494.6 157.3L493.8 157.7L493.6 157.8L493.5 157.9L493.3 158L493.1 158.1L492.9 158.2L492.5 158.4L491.9 158.7H491.7L491.5 158.8L491.3 158.9L491.1 159L490.8 159.2H490.6L490.4 159.4L490 159.5L489.8 159.6L489.4 159.8H489.2L489 159.9L488.6 160.1H488.4L488.2 160.3H488L487.6 160.5H487.4L486.8 160.8H486.6L486.4 160.9H486.2L486 161L485.8 161.1H485.6L485.4 161.3H485L484.8 161.4L484.4 161.6H484L483.8 161.8H483.4L483.2 161.9H483L482.8 162L482.6 162.1H482.4L482 162.3H481.6L481.4 162.4H481.2L481 162.5H480.8L480.6 162.6H480.4L480.2 162.7H480L479.8 162.8H479.4L479.2 162.9H479L478.4 163.1H478L477.8 163.2H477.4L477 163.4H476.2L475.8 163.6H474.8L474.6 163.7H474L473.8 163.8H473.2L472.6 163.9H472L471.8 164H470.5L470.1 164.1H463.8L463.6 164H462.9L462.7 163.9H461.9L461.7 163.8H461.2L460.8 163.7H460.4L460.2 163.6H459.9L459.5 163.5H459.3L458.6 163.3H458.4L458 163.2H457.8L457.6 163.1L457.1 163H456.9L456.7 162.9H456.5L456.4 162.8H456L455.8 162.7L455.5 162.6H455.3L454.7 162.4H454.6L454.2 162.2H454L453.8 162.1L453.1 161.9L452.8 161.7H452.4L452.1 161.5H451.9L451.7 161.4L451.4 161.2H451.1L450.9 161H450.7L450.4 160.8L450 160.7H449.9L449.7 160.6L449.5 160.5L449.4 160.4L448.9 160.2L448.7 160.1H448.5L448.2 159.9L448 159.8H447.9L447.7 159.6L447.2 159.4L447 159.3H446.9L446.7 159.1H446.6L446.2 158.9L446.1 158.8L445.9 158.7L445.8 158.6H445.6L445.4 158.4H445.3L445.1 158.2L444.8 158H444.6L444.5 157.9L444.3 157.8L444.2 157.7L443.4 157.2L443.3 157.1L443.1 157L442.8 156.8L442.7 156.7L442.5 156.6L442.2 156.4L442.1 156.3L441.9 156.2L441.8 156.1L441.3 155.7H441.2L441 155.5L440.9 155.4L440.7 155.3L440.4 155.1L440.3 155L440.2 154.8H440L439.9 154.6H439.7L439.6 154.4L439.4 154.3L439.3 154.2L439.2 154H439L438.9 153.8L438.7 153.7L438.6 153.6L438.5 153.5L438.3 153.3H438.2L437.9 153L437.6 152.7H437.5L437.2 152.4L437.1 152.2H437L436.8 152L436.4 151.6L436.3 151.5L436.2 151.4L435.9 151.1L435.8 151L435.6 150.8L435.4 150.6L435.3 150.5L435 150.2L434.9 150.1L434.7 149.9V149.8L434.4 149.5L434.2 149.4V149.2L433.9 149L433.7 148.8V148.7L433.5 148.6L433.4 148.4L433.2 148.3V148.2L433 148L432.9 147.9L432.7 147.7V147.6L432.5 147.5L432 146.9L431.8 146.6L431.6 146.3L431.3 146L431.1 145.7L430.9 145.4L430.6 145.2L430.4 144.9L430.2 144.6L429.9 144.3L429.7 144L428.8 142.8L428.6 142.4L428.4 142.1L427.9 141.5L427.5 140.9L427.3 140.6L426.9 140L426.7 139.6L426.2 139L426 138.7L425.8 138.4L425.6 138.1L425.4 137.7L425.2 137.4L424.8 136.8L424.6 136.4L424.4 136.1L424 135.5L423.8 135.1L423.6 134.8L423.2 134.1L423 133.8L422.8 133.5L422.6 133.1L422.4 132.8L422.2 132.5L422 132.1L421.8 131.8L421.6 131.5L421.4 131.1L420.8 130.1L420.4 129.4L420 128.8L419.2 127.4L418.9 126.7L418.5 126L417.7 124.7L417.3 124L416.9 123.3L416.5 122.6L415.7 121.3L414.9 119.9L414.7 119.6L414.5 119.2L414.3 118.9L413.7 117.9L413.5 117.5L413.3 117.2L413.1 116.9L412.7 116.2L412.5 115.9L412.3 115.5L412.1 115.2L411.9 114.9L411.7 114.6L411.5 114.2L411.1 113.6L410.6 112.9L410.4 112.6L410 112L409.8 111.6L409.6 111.3L409.3 111L409.1 110.7L408.7 110.1L408.5 109.7L408.3 109.5L408 109.1L407.8 108.8L407.6 108.5L407.3 108.2L407.1 107.9L406.9 107.6L406.4 107L405.8 106.3V106.1L405.6 106L405.5 105.8L405.1 105.4V105.3L404.9 105.1L404.8 105L404.7 104.8L404.4 104.5L404.3 104.4L404.2 104.3L404 104.1L403.6 103.6L403.4 103.4V103.3L403.2 103.2L403.1 103L402.7 102.6L402.6 102.5L402.3 102.2L402.2 102.1L402.1 102L401.9 101.8L401.7 101.6L401.5 101.4L401.3 101.2L400.9 100.8L400.8 100.7L400.6 100.6L400 99.9H399.8V99.7L399.6 99.6L399.4 99.5V99.3H399.2L399 99.1L398.9 99L398.8 98.9L398.6 98.8L398.5 98.6L398.2 98.4L398.1 98.3L397.9 98.2L397.8 98.1L397.5 97.9L397.4 97.8L397.2 97.6L396.8 97.3H396.7L396.5 97.1H396.4L396.3 96.9L396.1 96.8L396 96.7L395.8 96.6L395.7 96.5L395.5 96.4L395.4 96.3L395.2 96.2L395.1 96.1H394.9L394.8 95.9H394.6L394.5 95.7H394.3L394.2 95.5H394.1L393.7 95.3L393.3 95L393 94.8H392.8L392.5 94.6L392.4 94.5L392.2 94.4H392.1L391.9 94.2H391.7L391.6 94.1L391.4 94H391.3L391.1 93.8L390.6 93.6H390.5L390.3 93.5L390.2 93.4H390L389.3 93.1L389 92.9H388.8L388.7 92.8L388.3 92.7L387.7 92.4H387.5L387 92.2L386.6 92.1H386.4L386.3 92L385.9 91.9H385.7L385.6 91.8H385.4L385.2 91.7H384.8L384.7 91.6L384.1 91.4H383.6L383.4 91.3H383L382.4 91.1H381.9L381.5 91H380.7L380.5 90.9H379.7L379.1 90.8H373.8L373.5 90.9H372.8L372.6 91H371.9L371.7 91.1H371.5L371.2 91.2H370.8L370.5 91.3H370L369.8 91.4H369.6L369.1 91.6H368.6L368.1 91.8H367.9L367.1 92H366.9L366.6 92.2H366.1L365.8 92.4H365.6L365.3 92.5L364.8 92.7H364.6L364.3 92.8H364L363.8 93H363.5L363.2 93.1L363 93.2L362.4 93.4L362.2 93.5L361.9 93.6L361.6 93.7L361.4 93.8L361.1 93.9L360.8 94L360.6 94.1L360.3 94.2L360 94.3L359.7 94.4L359.4 94.5L359.2 94.7H358.9L358.6 94.9L358.3 95H358.2V95.1H357.9L357.2 95.5H357.1L356.9 95.6L356.8 95.7H356.6L356.2 96H356L355.9 96.1H355.8L355.6 96.2L355.5 96.3L355.2 96.5H355L354.9 96.6L354.6 96.7L354.4 96.8H354.3L354.1 97L353.6 97.3H353.4L353.3 97.4L353 97.6L352.7 97.7L352.5 97.8H352.4L351.8 98.2L351.5 98.4H351.3L351.2 98.6H351L350.8 98.7L350.7 98.8L350.5 98.9H350.4L350.2 99.1H350.1L349.8 99.3L349.3 99.6L349.2 99.7L349 99.8H348.8L348.7 100H348.5L348.4 100.2H348.2L348.1 100.4H347.9L347.8 100.6L347.4 100.8H347.3L347.1 101L346.8 101.2H346.7L346.5 101.4H346.3L346.2 101.6H346L345.9 101.8H345.7L345.5 102H345.4L344.6 102.6L344.4 102.7L344.3 102.8L344.1 102.9L343.9 103.1H343.8L343.6 103.3H343.4L343.3 103.5L343.1 103.6V105.4L342.9 107.3L342.7 109.1L342.4 110.9L342.1 112.8L341.8 114.6L341.4 116.4L341 118.2L340.6 119.9L340.1 121.7L339.5 123.5L338.9 125.2L338.3 126.9L337.6 128.7L336.9 130.4L336.1 132L335.3 133.7L334.5 135.3L333.6 137L332.7 138.6L331.7 140.1L330.7 141.7L329.7 143.2L328.7 144.7L327.6 146.2L326.4 147.6L325.3 149L324.1 150.4L322.8 151.8L321.5 153.1L320.2 154.4L318.9 155.7L317.5 156.9L316.1 158.1L314.7 159.3L313.3 160.4L311.8 161.5L310.3 162.5L308.7 163.5L307.2 164.5L305.6 165.5L304 166.5L302.4 167.3L300.7 168.1L299.1 168.9L297.4 169.6L295.7 170.4L294 171L292.2 171.6L290.5 172.2L288.7 172.8L287 173.2L285.2 173.7L283.4 174.1L281.6 174.5L279.8 174.8L277.9 175.1L276.1 175.3L274.3 175.5L272.5 175.6L270.7 175.8ZM83.7 117.5H82.8L82.6 117.6H82L81.8 117.7H81.6L81.5 117.8H81.3L81.1 117.9H81L80.8 118H80.6L80.5 118.1L80.3 118.2H80.2L80 118.4L79.8 118.5L79.7 118.6L79.5 118.7L79.4 118.8L79.2 118.9V119L79 119.1L78.8 119.3L78.6 119.5L78.5 119.6L78.3 119.7V119.9H78L77.9 120.1L77.8 120.3L77.7 120.4L77.6 120.5L77.5 120.7L77.4 120.8L77.3 121V121.1L77.1 121.3V121.4L77 121.6L76.9 121.7V121.9L76.8 122.1L76.7 122.2V122.4L76.6 122.6V122.7L76.5 122.9V123.2L76.4 123.4V124.1L76.3 124.3V135.7L76.4 135.8V136L76.5 136.2V136.5L76.6 136.7L76.7 136.8V137L76.8 137.1L76.9 137.3V137.5L77 137.6L77.1 137.8L77.2 137.9V138.1L77.4 138.2V138.4L77.6 138.5V138.6L77.8 138.8V138.9L78 139.1H78.1L78.2 139.3L78.4 139.4V139.6H78.6L78.7 139.8L78.9 139.9L79 140L79.1 140.1L79.3 140.2L79.4 140.3L79.6 140.4L79.7 140.5H79.9L80 140.7H80.2L80.3 140.8L80.5 140.9H80.6L80.8 141H81L81.1 141.1L81.3 141.2H81.6L81.8 141.3H82L82.1 141.4H82.8L83.2 141.5H84.6L84.8 141.4H85.1L85.3 141.3H85.4L85.6 141.2H85.8L85.9 141.1H86.1L86.3 141L86.4 140.9H86.6L86.7 140.8L86.9 140.7L87 140.6L87.2 140.5H87.3L87.5 140.3H87.6L87.8 140.1H87.9L88 139.9L88.2 139.8L88.3 139.7L88.4 139.6L88.6 139.4L88.8 139.2L88.9 139.1L89 138.9L89.1 138.8L89.2 138.6H89.3L89.4 138.4L89.5 138.2L89.6 138.1L89.7 137.9V137.8L89.9 137.6V137.5L90 137.3V137.1L90.1 137L90.2 136.8V136.7L90.3 136.5V136.3L90.4 136.2V135.8L90.5 135.6V135.1L90.6 135V123.4L90.5 123.2V122.9L90.4 122.7V122.6L90.3 122.4V122.2L90.1 122.1V121.7L89.9 121.6V121.4L89.8 121.3L89.7 121.1V121L89.5 120.8V120.7L89.3 120.5V120.4L89.1 120.3V120.1L88.9 120L88.8 119.9L88.7 119.7H88.6L88.4 119.5L88.3 119.4L88.2 119.3L88 119.1L87.8 118.9H87.6L87.5 118.7H87.3L87.2 118.5H87L86.9 118.4L86.7 118.3H86.6L86.4 118.1H86.1L85.9 118L85.8 117.9H85.6L85.4 117.8H85.1L84.9 117.7H84.6L84.4 117.6H83.6" fill="black"/>
</svg>
